<svg width="136" height="56" viewBox="0 0 136 56" fill="none" xmlns="http://www.w3.org/2000/svg">
<path d="M0 42.7541V43.7519C0 44.9313 0.855726 45.8884 1.91 45.8884H11.0175C12.4653 51.7208 17.2464 56 22.9214 56C28.5963 56 33.3772 51.7208 34.8253 45.8884H101.939C103.387 51.7208 108.168 56 113.843 56C119.518 56 124.299 51.7208 125.747 45.8884H134.09C135.144 45.8884 136 44.9313 136 43.7519V42.7541C136 41.5749 135.144 40.6178 134.09 40.6178H134.073V28.0534C134.073 27.4596 133.998 26.872 133.853 26.3078L132.652 21.6718C132.159 19.7747 130.906 18.3433 129.355 17.9053L122.688 16.0254C120.742 15.4761 118.895 14.4764 117.241 13.0771L106.995 4.41598C104.748 2.51669 102.155 1.36301 99.4556 1.0576C93.1732 0.352459 86.8737 0 80.5742 0C73.1381 0 65.7021 0.491418 58.2984 1.47426L53.2691 2.14092C51.04 2.43798 48.8796 3.28823 46.9141 4.64266L34.2196 13.4043C32.3019 14.7266 30.1969 15.5705 28.0231 15.8847L11.8827 18.2197C7.64806 18.833 4.24993 22.8835 3.54891 28.1541L3.53928 28.2267L2.30336 30.047C1.60235 31.0789 1.21842 32.3885 1.21842 33.7431V38.9753C1.21842 39.5736 1.29096 40.1481 1.4266 40.6888C0.607442 40.9298 0 41.7607 0 42.7541ZM126.847 24.7014H129.5C129.742 24.7014 129.97 24.836 130.105 25.0605L130.43 25.5946C131.135 26.7524 131.511 28.1218 131.511 29.5213V30.2904C131.511 30.7434 131.183 31.1108 130.778 31.1108H128.482C128.178 31.1108 127.905 30.9015 127.798 30.5853L126.163 25.8147C125.978 25.2782 126.333 24.7014 126.847 24.7014ZM67.5703 29.1346H62.7951C61.8993 29.1346 61.1715 28.3206 61.1715 27.3186C61.1715 26.3166 61.8993 25.5027 62.7951 25.5027H67.5703C68.4661 25.5027 69.1939 26.3166 69.1939 27.3186C69.1939 28.3206 68.4661 29.1346 67.5703 29.1346ZM103.352 29.1346H98.5771C97.6813 29.1346 96.9535 28.3206 96.9535 27.3186C96.9535 26.3166 97.6813 25.5027 98.5771 25.5027H103.352C104.25 25.5027 104.976 26.3166 104.976 27.3186C104.976 28.3206 104.25 29.1346 103.352 29.1346ZM106.462 40.2759C106.653 39.3486 106.98 38.4812 107.419 37.6972C108.032 37.9812 108.754 37.881 109.291 37.3915C109.339 37.3467 109.386 37.2996 109.43 37.2506C109.476 37.1994 109.518 37.1457 109.556 37.0923C109.994 36.4942 110.085 35.6866 109.831 35.0008C110.532 34.5094 111.308 34.1442 112.137 33.9305C112.414 34.6781 113.073 35.2057 113.843 35.2057C114.612 35.2057 115.271 34.6781 115.548 33.9305C116.377 34.1442 117.153 34.5094 117.854 35.0008C117.579 35.7486 117.711 36.6415 118.255 37.2506C118.799 37.8572 119.598 38.0067 120.266 37.6969C120.706 38.481 121.032 39.3484 121.223 40.2756C120.555 40.5854 120.083 41.3225 120.083 42.1835C120.083 43.0467 120.555 43.7837 121.225 44.0935C121.095 44.7217 120.904 45.322 120.658 45.8882C120.539 46.1575 120.405 46.4181 120.264 46.67C119.596 46.3624 118.797 46.512 118.255 47.1188C117.71 47.7276 117.577 48.6208 117.854 49.3686C117.153 49.86 116.377 50.2252 115.548 50.4389C115.271 49.6913 114.612 49.1636 113.842 49.1636C113.073 49.1636 112.414 49.6913 112.137 50.4389C111.308 50.2252 110.532 49.86 109.831 49.3686C110.108 48.6208 109.974 47.7279 109.43 47.1188C108.887 46.512 108.091 46.3627 107.422 46.67C107.281 46.4181 107.147 46.1573 107.029 45.8882C106.782 45.322 106.59 44.7217 106.46 44.0935C107.13 43.7837 107.602 43.0467 107.602 42.1835C107.602 41.3227 107.131 40.5857 106.462 40.2759ZM75.205 18.2492L77.3387 7.30865C77.5355 6.2981 78.3511 5.59098 79.2737 5.62726L97.4045 6.37088C97.9946 6.39419 98.5409 6.72334 98.8867 7.2594L105.349 17.335C106.397 18.9715 105.352 21.2468 103.553 21.2468H77.3652C75.9555 21.2468 74.905 19.7896 75.205 18.2492ZM36.7276 17.9482L49.4221 9.18881C50.8012 8.23609 52.2854 7.65056 53.8327 7.44541L58.8601 6.77655C63.2496 6.19345 67.6849 5.79173 72.1182 5.56306C72.7618 5.53096 73.2433 6.21258 73.0732 6.90474L70.5271 17.2087C69.9369 19.5951 67.9943 21.2465 65.7804 21.2465H40.9948C39.3311 21.2465 37.7762 20.3129 36.8575 18.7595L36.4773 18.1166C36.5615 18.0612 36.6454 18.0058 36.7276 17.9482ZM15.5407 40.2759C15.5884 40.045 15.6439 39.8165 15.7087 39.5923C15.8387 39.1435 15.9991 38.7121 16.1902 38.2998C16.2857 38.0947 16.3887 37.8939 16.4976 37.6974C17.1108 37.9815 17.8328 37.8812 18.3695 37.3918C18.4173 37.3469 18.465 37.2998 18.5091 37.2508C18.5549 37.1996 18.5969 37.1459 18.6351 37.0925C19.0721 36.4951 19.1639 35.6886 18.9109 35.0033C18.9258 34.9929 18.94 34.9815 18.9551 34.9711C18.9962 34.9428 19.0377 34.9157 19.0792 34.8883C19.2006 34.8082 19.3231 34.7293 19.4489 34.6569C19.5871 34.5769 19.7277 34.5015 19.8706 34.4314C19.871 34.4311 19.8714 34.4309 19.8718 34.4307C19.8761 34.4285 19.8804 34.4267 19.8848 34.4245C20.0232 34.3566 20.1637 34.2928 20.3062 34.2341C20.3072 34.2337 20.3082 34.2332 20.3092 34.233C20.311 34.2324 20.3127 34.2317 20.3145 34.231C20.4594 34.1715 20.6062 34.1165 20.755 34.067C20.756 34.0666 20.757 34.0664 20.758 34.0661C20.9082 34.016 21.0603 33.9709 21.2141 33.9311C21.2144 33.9311 21.215 33.9309 21.2154 33.9309C21.4924 34.6785 22.1514 35.2062 22.9212 35.2062C23.691 35.2062 24.3499 34.6785 24.6269 33.9309H24.6271C24.6277 33.9309 24.6281 33.9311 24.6285 33.9311C24.7824 33.9711 24.9344 34.016 25.0846 34.0661C25.0856 34.0664 25.0865 34.0668 25.0875 34.067C25.2363 34.1165 25.3832 34.1715 25.5281 34.231C25.5298 34.2317 25.5316 34.2324 25.5334 34.233C25.5344 34.2335 25.5353 34.2339 25.5363 34.2341C25.6788 34.2931 25.8192 34.3568 25.9578 34.4245C25.9621 34.4267 25.9664 34.4285 25.9708 34.4307C25.9712 34.4307 25.9716 34.4311 25.9719 34.4314C26.1149 34.5017 26.2554 34.5771 26.3936 34.6569C26.52 34.7297 26.6429 34.8089 26.765 34.8894C26.8059 34.9164 26.8469 34.9432 26.8874 34.9711C26.891 34.9736 26.8943 34.9762 26.8979 34.9786C26.9093 34.9865 26.9203 34.9953 26.9317 35.0033C26.6578 35.7506 26.7897 36.6424 27.3335 37.2508C27.8778 37.8574 28.6763 38.007 29.3447 37.6972C29.4536 37.8937 29.5568 38.0945 29.6524 38.2996C29.8435 38.7119 30.0039 39.1435 30.1336 39.592C30.1985 39.8163 30.2539 40.0448 30.3017 40.2756C29.6331 40.5854 29.1613 41.3225 29.1613 42.1835C29.1613 43.0467 29.6331 43.7837 30.3037 44.0935C30.2712 44.2558 30.2331 44.4161 30.191 44.5742C30.1529 44.7217 30.1088 44.8691 30.063 45.0144C30.04 45.0913 30.0133 45.1681 29.9885 45.2453C29.937 45.3904 29.8834 45.5335 29.8262 45.6747C29.7975 45.7472 29.767 45.8178 29.7363 45.8884C29.618 46.1577 29.4841 46.4183 29.3428 46.6703C28.6742 46.3627 27.8759 46.5122 27.3333 47.119C26.7889 47.7279 26.6553 48.621 26.9323 49.3688C26.2312 49.8602 25.4557 50.2254 24.6267 50.4391C24.3498 49.6916 23.6908 49.1639 22.921 49.1639C22.1512 49.1639 21.4922 49.6916 21.2152 50.4391C20.3862 50.2254 19.6107 49.8602 18.9097 49.3688C19.1867 48.621 19.053 47.7281 18.5087 47.119C17.9661 46.5122 17.1698 46.3629 16.5012 46.6703C16.3598 46.4183 16.2262 46.1575 16.1078 45.8884C16.0771 45.8178 16.0467 45.7472 16.018 45.6747C15.9606 45.5335 15.9073 45.3904 15.8556 45.2453C15.7257 44.8734 15.6207 44.4889 15.5385 44.0935C16.209 43.7837 16.6808 43.0467 16.6808 42.1835C16.681 41.3227 16.2092 40.5857 15.5407 40.2759ZM7.49158 26.9017C8.03218 25.3507 8.88987 23.4835 10.0894 22.5583C10.2805 22.411 10.5097 22.3384 10.7427 22.3384H13.3958C14.2668 22.3384 14.8359 23.3576 14.454 24.2335L13.4015 26.6476C13.2601 26.9745 13.0042 27.2203 12.6947 27.327L8.93941 28.6451C7.99385 28.9762 7.13046 27.9358 7.49158 26.9017Z" fill="#141414"/>
</svg>
